<mxfile host="app.diagrams.net" modified="2023-05-09T14:32:08.363Z" agent="Mozilla/5.0 (Windows NT 10.0; Win64; x64) AppleWebKit/537.36 (KHTML, like Gecko) Chrome/112.0.0.0 Safari/537.36 Edg/112.0.1722.68" etag="xM031Cc9_BNT2Ui_Ihdb" version="21.2.9" type="github">
  <diagram name="第 1 页" id="gWeG35e6C86zQD0y6pNc">
    <mxGraphModel dx="851" dy="456" grid="0" gridSize="10" guides="1" tooltips="1" connect="1" arrows="1" fold="1" page="1" pageScale="1" pageWidth="2336" pageHeight="1654" math="0" shadow="0">
      <root>
        <mxCell id="0" />
        <mxCell id="1" parent="0" />
        <mxCell id="XD2-V8QEW1LzV1P3F_-f-17" value="" style="rounded=1;whiteSpace=wrap;html=1;fillColor=none;" parent="1" vertex="1">
          <mxGeometry x="288.64" y="532" width="472.5" height="202" as="geometry" />
        </mxCell>
        <mxCell id="u9Ba9--OEbl625sA4hoY-221" value="" style="rounded=1;whiteSpace=wrap;html=1;dashed=1;fillColor=none;strokeColor=#9673a6;" parent="1" vertex="1">
          <mxGeometry x="367.77" y="605" width="167.37" height="121" as="geometry" />
        </mxCell>
        <mxCell id="u9Ba9--OEbl625sA4hoY-62" value="" style="rounded=1;whiteSpace=wrap;html=1;fillColor=none;glass=0;strokeColor=default;" parent="1" vertex="1">
          <mxGeometry x="286.14" y="765" width="477" height="440" as="geometry" />
        </mxCell>
        <mxCell id="u9Ba9--OEbl625sA4hoY-217" value="" style="rounded=1;whiteSpace=wrap;html=1;dashed=1;fillColor=none;strokeColor=#9673a6;" parent="1" vertex="1">
          <mxGeometry x="367.14" y="862" width="175" height="332" as="geometry" />
        </mxCell>
        <mxCell id="XD2-V8QEW1LzV1P3F_-f-185" value="" style="rounded=1;whiteSpace=wrap;html=1;dashed=1;" parent="1" vertex="1">
          <mxGeometry x="376.14" y="871" width="80" height="313" as="geometry" />
        </mxCell>
        <mxCell id="XD2-V8QEW1LzV1P3F_-f-189" value="" style="rounded=1;whiteSpace=wrap;html=1;fillStyle=solid;gradientColor=default;fillColor=none;dashed=1;dashPattern=1 2;" parent="1" vertex="1">
          <mxGeometry x="384.14" y="1078" width="149" height="106" as="geometry" />
        </mxCell>
        <mxCell id="XD2-V8QEW1LzV1P3F_-f-1" value="" style="rounded=1;whiteSpace=wrap;html=1;rotation=0;" parent="1" vertex="1">
          <mxGeometry x="291.66" y="316" width="463.45" height="30" as="geometry" />
        </mxCell>
        <mxCell id="XD2-V8QEW1LzV1P3F_-f-12" style="edgeStyle=orthogonalEdgeStyle;rounded=0;orthogonalLoop=1;jettySize=auto;html=1;entryX=0;entryY=0.5;entryDx=0;entryDy=0;exitX=1;exitY=0.5;exitDx=0;exitDy=0;" parent="1" source="XD2-V8QEW1LzV1P3F_-f-3" target="XD2-V8QEW1LzV1P3F_-f-7" edge="1">
          <mxGeometry relative="1" as="geometry">
            <mxPoint x="432.89" y="362" as="targetPoint" />
            <Array as="points" />
            <mxPoint x="439.89" y="412" as="sourcePoint" />
          </mxGeometry>
        </mxCell>
        <mxCell id="XD2-V8QEW1LzV1P3F_-f-3" value="" style="rounded=1;whiteSpace=wrap;html=1;fillColor=#f8cecc;strokeColor=#b85450;" parent="1" vertex="1">
          <mxGeometry x="307.14" y="383.22" width="60" height="58" as="geometry" />
        </mxCell>
        <mxCell id="XD2-V8QEW1LzV1P3F_-f-13" style="edgeStyle=orthogonalEdgeStyle;rounded=0;orthogonalLoop=1;jettySize=auto;html=1;entryX=1;entryY=0.5;entryDx=0;entryDy=0;exitX=0;exitY=0.5;exitDx=0;exitDy=0;" parent="1" source="O8xAqdgmH1oKLNabAZYg-48" target="XD2-V8QEW1LzV1P3F_-f-7" edge="1">
          <mxGeometry relative="1" as="geometry">
            <Array as="points" />
            <mxPoint x="608.89" y="412.19999999999993" as="sourcePoint" />
          </mxGeometry>
        </mxCell>
        <mxCell id="O8xAqdgmH1oKLNabAZYg-53" style="edgeStyle=orthogonalEdgeStyle;rounded=0;orthogonalLoop=1;jettySize=auto;html=1;entryX=0.5;entryY=1;entryDx=0;entryDy=0;" edge="1" parent="1" source="XD2-V8QEW1LzV1P3F_-f-7" target="XD2-V8QEW1LzV1P3F_-f-1">
          <mxGeometry relative="1" as="geometry" />
        </mxCell>
        <mxCell id="XD2-V8QEW1LzV1P3F_-f-7" value="" style="ellipse;whiteSpace=wrap;html=1;aspect=fixed;" parent="1" vertex="1">
          <mxGeometry x="503.39" y="392.22" width="40" height="40" as="geometry" />
        </mxCell>
        <mxCell id="XD2-V8QEW1LzV1P3F_-f-10" value="" style="endArrow=none;html=1;rounded=0;entryX=0;entryY=0;entryDx=0;entryDy=0;exitX=1;exitY=1;exitDx=0;exitDy=0;" parent="1" source="XD2-V8QEW1LzV1P3F_-f-7" target="XD2-V8QEW1LzV1P3F_-f-7" edge="1">
          <mxGeometry width="50" height="50" relative="1" as="geometry">
            <mxPoint x="573.39" y="427.22" as="sourcePoint" />
            <mxPoint x="623.39" y="377.22" as="targetPoint" />
          </mxGeometry>
        </mxCell>
        <mxCell id="XD2-V8QEW1LzV1P3F_-f-11" value="" style="endArrow=none;html=1;rounded=0;entryX=1;entryY=0;entryDx=0;entryDy=0;exitX=0;exitY=1;exitDx=0;exitDy=0;" parent="1" source="XD2-V8QEW1LzV1P3F_-f-7" target="XD2-V8QEW1LzV1P3F_-f-7" edge="1">
          <mxGeometry width="50" height="50" relative="1" as="geometry">
            <mxPoint x="573.39" y="427.22" as="sourcePoint" />
            <mxPoint x="623.39" y="377.22" as="targetPoint" />
          </mxGeometry>
        </mxCell>
        <mxCell id="XD2-V8QEW1LzV1P3F_-f-14" value="" style="rounded=1;whiteSpace=wrap;html=1;" parent="1" vertex="1">
          <mxGeometry x="291" y="467" width="470" height="30" as="geometry" />
        </mxCell>
        <mxCell id="O8xAqdgmH1oKLNabAZYg-49" style="edgeStyle=orthogonalEdgeStyle;rounded=0;orthogonalLoop=1;jettySize=auto;html=1;entryX=1;entryY=0.5;entryDx=0;entryDy=0;" edge="1" parent="1" source="XD2-V8QEW1LzV1P3F_-f-20" target="XD2-V8QEW1LzV1P3F_-f-63">
          <mxGeometry relative="1" as="geometry">
            <Array as="points">
              <mxPoint x="552.14" y="790" />
              <mxPoint x="376.14" y="790" />
            </Array>
          </mxGeometry>
        </mxCell>
        <mxCell id="XD2-V8QEW1LzV1P3F_-f-20" value="" style="rounded=1;whiteSpace=wrap;html=1;fillColor=#dae8fc;strokeColor=#6c8ebf;" parent="1" vertex="1">
          <mxGeometry x="366.01" y="812" width="370.13" height="30" as="geometry" />
        </mxCell>
        <mxCell id="O8xAqdgmH1oKLNabAZYg-15" value="" style="edgeStyle=orthogonalEdgeStyle;rounded=0;orthogonalLoop=1;jettySize=auto;html=1;" edge="1" parent="1" source="XD2-V8QEW1LzV1P3F_-f-21" target="XD2-V8QEW1LzV1P3F_-f-45">
          <mxGeometry relative="1" as="geometry" />
        </mxCell>
        <mxCell id="XD2-V8QEW1LzV1P3F_-f-21" value="" style="rounded=1;whiteSpace=wrap;html=1;fillColor=#dae8fc;strokeColor=#6c8ebf;" parent="1" vertex="1">
          <mxGeometry x="404.18" y="954" width="31.91" height="62" as="geometry" />
        </mxCell>
        <mxCell id="XD2-V8QEW1LzV1P3F_-f-55" style="edgeStyle=orthogonalEdgeStyle;rounded=0;orthogonalLoop=1;jettySize=auto;html=1;entryX=0;entryY=0.5;entryDx=0;entryDy=0;exitX=0.5;exitY=0;exitDx=0;exitDy=0;" parent="1" target="XD2-V8QEW1LzV1P3F_-f-21" edge="1" source="u9Ba9--OEbl625sA4hoY-120">
          <mxGeometry relative="1" as="geometry">
            <Array as="points">
              <mxPoint x="325.14" y="985" />
            </Array>
            <mxPoint x="326.1055172413793" y="1085" as="sourcePoint" />
          </mxGeometry>
        </mxCell>
        <mxCell id="XD2-V8QEW1LzV1P3F_-f-62" style="edgeStyle=orthogonalEdgeStyle;rounded=0;orthogonalLoop=1;jettySize=auto;html=1;dashed=1;dashPattern=1 2;" parent="1" target="XD2-V8QEW1LzV1P3F_-f-63" edge="1">
          <mxGeometry relative="1" as="geometry">
            <mxPoint x="302.14" y="816.0344827586208" as="targetPoint" />
            <Array as="points">
              <mxPoint x="260.14" y="1115" />
              <mxPoint x="260.14" y="790" />
            </Array>
            <mxPoint x="302.14" y="1115.5172413793105" as="sourcePoint" />
          </mxGeometry>
        </mxCell>
        <mxCell id="XD2-V8QEW1LzV1P3F_-f-56" style="edgeStyle=orthogonalEdgeStyle;rounded=0;orthogonalLoop=1;jettySize=auto;html=1;entryX=0;entryY=0.5;entryDx=0;entryDy=0;exitX=0.481;exitY=0.006;exitDx=0;exitDy=0;exitPerimeter=0;" parent="1" target="XD2-V8QEW1LzV1P3F_-f-20" edge="1">
          <mxGeometry relative="1" as="geometry">
            <Array as="points">
              <mxPoint x="325.14" y="1085" />
              <mxPoint x="325.14" y="827" />
            </Array>
            <mxPoint x="326.18999999999994" y="1085.366" as="sourcePoint" />
          </mxGeometry>
        </mxCell>
        <mxCell id="O8xAqdgmH1oKLNabAZYg-43" style="edgeStyle=orthogonalEdgeStyle;rounded=0;orthogonalLoop=1;jettySize=auto;html=1;" edge="1" parent="1" source="XD2-V8QEW1LzV1P3F_-f-45">
          <mxGeometry relative="1" as="geometry">
            <mxPoint x="420" y="844" as="targetPoint" />
          </mxGeometry>
        </mxCell>
        <mxCell id="XD2-V8QEW1LzV1P3F_-f-45" value="" style="rounded=1;whiteSpace=wrap;html=1;" parent="1" vertex="1">
          <mxGeometry x="407.72999999999996" y="884" width="24.81" height="46" as="geometry" />
        </mxCell>
        <mxCell id="u9Ba9--OEbl625sA4hoY-222" style="edgeStyle=orthogonalEdgeStyle;rounded=0;orthogonalLoop=1;jettySize=auto;html=1;entryX=0.6;entryY=0.995;entryDx=0;entryDy=0;entryPerimeter=0;" parent="1" source="XD2-V8QEW1LzV1P3F_-f-63" target="XD2-V8QEW1LzV1P3F_-f-67" edge="1">
          <mxGeometry relative="1" as="geometry" />
        </mxCell>
        <mxCell id="XD2-V8QEW1LzV1P3F_-f-63" value="" style="ellipse;whiteSpace=wrap;html=1;aspect=fixed;" parent="1" vertex="1">
          <mxGeometry x="321.01" y="772" width="35" height="35" as="geometry" />
        </mxCell>
        <mxCell id="XD2-V8QEW1LzV1P3F_-f-64" value="" style="endArrow=none;html=1;rounded=0;entryX=0.5;entryY=0;entryDx=0;entryDy=0;exitX=0.5;exitY=1;exitDx=0;exitDy=0;" parent="1" source="XD2-V8QEW1LzV1P3F_-f-63" target="XD2-V8QEW1LzV1P3F_-f-63" edge="1">
          <mxGeometry width="50" height="50" relative="1" as="geometry">
            <mxPoint x="380.01" y="867" as="sourcePoint" />
            <mxPoint x="430.01" y="817" as="targetPoint" />
          </mxGeometry>
        </mxCell>
        <mxCell id="XD2-V8QEW1LzV1P3F_-f-65" value="" style="endArrow=none;html=1;rounded=0;exitX=1;exitY=0.5;exitDx=0;exitDy=0;entryX=0;entryY=0.5;entryDx=0;entryDy=0;" parent="1" source="XD2-V8QEW1LzV1P3F_-f-63" target="XD2-V8QEW1LzV1P3F_-f-63" edge="1">
          <mxGeometry width="50" height="50" relative="1" as="geometry">
            <mxPoint x="349.01" y="817" as="sourcePoint" />
            <mxPoint x="349.01" y="782" as="targetPoint" />
          </mxGeometry>
        </mxCell>
        <mxCell id="XD2-V8QEW1LzV1P3F_-f-191" style="edgeStyle=orthogonalEdgeStyle;rounded=0;orthogonalLoop=1;jettySize=auto;html=1;entryX=0;entryY=0.5;entryDx=0;entryDy=0;dashed=1;dashPattern=1 2;" parent="1" source="XD2-V8QEW1LzV1P3F_-f-67" target="XD2-V8QEW1LzV1P3F_-f-141" edge="1">
          <mxGeometry relative="1" as="geometry">
            <Array as="points">
              <mxPoint x="260.14" y="657" />
              <mxPoint x="260.14" y="554" />
            </Array>
          </mxGeometry>
        </mxCell>
        <mxCell id="XD2-V8QEW1LzV1P3F_-f-67" value="" style="rounded=1;whiteSpace=wrap;html=1;fillColor=#f8cecc;strokeColor=#b85450;" parent="1" vertex="1">
          <mxGeometry x="308.64" y="627" width="50" height="90" as="geometry" />
        </mxCell>
        <mxCell id="XD2-V8QEW1LzV1P3F_-f-71" value="Layer1" style="text;html=1;strokeColor=none;fillColor=none;align=center;verticalAlign=middle;whiteSpace=wrap;rounded=0;rotation=-90;" parent="1" vertex="1">
          <mxGeometry x="276.14000000000004" y="906" width="60" height="30" as="geometry" />
        </mxCell>
        <mxCell id="XD2-V8QEW1LzV1P3F_-f-72" value="Layer2" style="text;html=1;strokeColor=none;fillColor=none;align=center;verticalAlign=middle;whiteSpace=wrap;rounded=0;rotation=-90;" parent="1" vertex="1">
          <mxGeometry x="276.14" y="581" width="60" height="30" as="geometry" />
        </mxCell>
        <mxCell id="XD2-V8QEW1LzV1P3F_-f-73" value="" style="endArrow=none;dashed=1;html=1;dashPattern=1 3;strokeWidth=2;rounded=0;entryX=0.63;entryY=0.026;entryDx=0;entryDy=0;entryPerimeter=0;" parent="1" edge="1">
          <mxGeometry width="50" height="50" relative="1" as="geometry">
            <mxPoint x="523.36" y="499" as="sourcePoint" />
            <mxPoint x="523.2900000000001" y="529" as="targetPoint" />
          </mxGeometry>
        </mxCell>
        <mxCell id="XD2-V8QEW1LzV1P3F_-f-194" style="edgeStyle=orthogonalEdgeStyle;rounded=0;orthogonalLoop=1;jettySize=auto;html=1;entryX=1;entryY=0.5;entryDx=0;entryDy=0;exitX=0.5;exitY=0;exitDx=0;exitDy=0;" parent="1" source="XD2-V8QEW1LzV1P3F_-f-137" target="XD2-V8QEW1LzV1P3F_-f-141" edge="1">
          <mxGeometry relative="1" as="geometry">
            <Array as="points">
              <mxPoint x="555.14" y="554" />
            </Array>
            <mxPoint x="490.14" y="559" as="sourcePoint" />
          </mxGeometry>
        </mxCell>
        <mxCell id="XD2-V8QEW1LzV1P3F_-f-137" value="" style="rounded=1;whiteSpace=wrap;html=1;fillColor=#dae8fc;strokeColor=#6c8ebf;" parent="1" vertex="1">
          <mxGeometry x="375.64" y="565" width="359.5" height="29" as="geometry" />
        </mxCell>
        <mxCell id="XD2-V8QEW1LzV1P3F_-f-141" value="" style="ellipse;whiteSpace=wrap;html=1;aspect=fixed;" parent="1" vertex="1">
          <mxGeometry x="321.14" y="536.5" width="35" height="35" as="geometry" />
        </mxCell>
        <mxCell id="XD2-V8QEW1LzV1P3F_-f-142" value="" style="endArrow=none;html=1;rounded=0;entryX=0.5;entryY=0;entryDx=0;entryDy=0;exitX=0.5;exitY=1;exitDx=0;exitDy=0;" parent="1" source="XD2-V8QEW1LzV1P3F_-f-141" target="XD2-V8QEW1LzV1P3F_-f-141" edge="1">
          <mxGeometry width="50" height="50" relative="1" as="geometry">
            <mxPoint x="380.14" y="631.5" as="sourcePoint" />
            <mxPoint x="430.14" y="581.5" as="targetPoint" />
          </mxGeometry>
        </mxCell>
        <mxCell id="XD2-V8QEW1LzV1P3F_-f-143" value="" style="endArrow=none;html=1;rounded=0;exitX=1;exitY=0.5;exitDx=0;exitDy=0;entryX=0;entryY=0.5;entryDx=0;entryDy=0;" parent="1" source="XD2-V8QEW1LzV1P3F_-f-141" target="XD2-V8QEW1LzV1P3F_-f-141" edge="1">
          <mxGeometry width="50" height="50" relative="1" as="geometry">
            <mxPoint x="349.14" y="581.5" as="sourcePoint" />
            <mxPoint x="349.14" y="546.5" as="targetPoint" />
          </mxGeometry>
        </mxCell>
        <mxCell id="XD2-V8QEW1LzV1P3F_-f-184" value="Relu" style="text;html=1;align=center;verticalAlign=middle;resizable=0;points=[];autosize=1;strokeColor=none;fillColor=none;rotation=-90;" parent="1" vertex="1">
          <mxGeometry x="303.64" y="741" width="43" height="26" as="geometry" />
        </mxCell>
        <mxCell id="u9Ba9--OEbl625sA4hoY-120" value="" style="rounded=1;whiteSpace=wrap;html=1;fillColor=#f8cecc;strokeColor=#b85450;" parent="1" vertex="1">
          <mxGeometry x="300.14" y="1083" width="50" height="90" as="geometry" />
        </mxCell>
        <mxCell id="O8xAqdgmH1oKLNabAZYg-13" value="" style="edgeStyle=orthogonalEdgeStyle;rounded=0;orthogonalLoop=1;jettySize=auto;html=1;" edge="1" parent="1" source="u9Ba9--OEbl625sA4hoY-125" target="XD2-V8QEW1LzV1P3F_-f-21">
          <mxGeometry relative="1" as="geometry" />
        </mxCell>
        <mxCell id="u9Ba9--OEbl625sA4hoY-125" value="" style="rounded=1;whiteSpace=wrap;html=1;fillColor=#d5e8d4;strokeColor=#82b366;" parent="1" vertex="1">
          <mxGeometry x="391.39" y="1083" width="57.5" height="91" as="geometry" />
        </mxCell>
        <mxCell id="u9Ba9--OEbl625sA4hoY-218" value="Current_span_pool" style="text;html=1;strokeColor=none;fillColor=none;align=center;verticalAlign=middle;whiteSpace=wrap;rounded=0;rotation=-90;" parent="1" vertex="1">
          <mxGeometry x="493.64" y="943" width="60" height="30" as="geometry" />
        </mxCell>
        <mxCell id="O8xAqdgmH1oKLNabAZYg-27" value="" style="endArrow=classic;html=1;rounded=0;" edge="1" parent="1">
          <mxGeometry width="50" height="50" relative="1" as="geometry">
            <mxPoint x="324.96" y="1237" as="sourcePoint" />
            <mxPoint x="324.96" y="1174" as="targetPoint" />
          </mxGeometry>
        </mxCell>
        <mxCell id="O8xAqdgmH1oKLNabAZYg-44" style="edgeStyle=orthogonalEdgeStyle;rounded=0;orthogonalLoop=1;jettySize=auto;html=1;" edge="1" parent="1" source="O8xAqdgmH1oKLNabAZYg-28">
          <mxGeometry relative="1" as="geometry">
            <mxPoint x="497" y="843" as="targetPoint" />
          </mxGeometry>
        </mxCell>
        <mxCell id="O8xAqdgmH1oKLNabAZYg-28" value="" style="rounded=1;whiteSpace=wrap;html=1;fillColor=#d5e8d4;strokeColor=#82b366;" vertex="1" parent="1">
          <mxGeometry x="468.14" y="1083" width="57.5" height="91" as="geometry" />
        </mxCell>
        <mxCell id="O8xAqdgmH1oKLNabAZYg-30" value="" style="rounded=1;whiteSpace=wrap;html=1;dashed=1;fillColor=none;strokeColor=#d79b00;" vertex="1" parent="1">
          <mxGeometry x="567.14" y="862" width="175" height="332" as="geometry" />
        </mxCell>
        <mxCell id="O8xAqdgmH1oKLNabAZYg-31" value="" style="rounded=1;whiteSpace=wrap;html=1;dashed=1;" vertex="1" parent="1">
          <mxGeometry x="576.14" y="871" width="80" height="313" as="geometry" />
        </mxCell>
        <mxCell id="O8xAqdgmH1oKLNabAZYg-32" value="" style="rounded=1;whiteSpace=wrap;html=1;fillStyle=solid;gradientColor=default;fillColor=none;dashed=1;dashPattern=1 2;" vertex="1" parent="1">
          <mxGeometry x="584.14" y="1078" width="149" height="106" as="geometry" />
        </mxCell>
        <mxCell id="O8xAqdgmH1oKLNabAZYg-33" value="" style="edgeStyle=orthogonalEdgeStyle;rounded=0;orthogonalLoop=1;jettySize=auto;html=1;" edge="1" parent="1" source="O8xAqdgmH1oKLNabAZYg-34" target="O8xAqdgmH1oKLNabAZYg-36">
          <mxGeometry relative="1" as="geometry" />
        </mxCell>
        <mxCell id="O8xAqdgmH1oKLNabAZYg-34" value="" style="rounded=1;whiteSpace=wrap;html=1;fillColor=#dae8fc;strokeColor=#6c8ebf;" vertex="1" parent="1">
          <mxGeometry x="604.18" y="954" width="31.91" height="62" as="geometry" />
        </mxCell>
        <mxCell id="O8xAqdgmH1oKLNabAZYg-35" style="edgeStyle=orthogonalEdgeStyle;rounded=0;orthogonalLoop=1;jettySize=auto;html=1;entryX=0.099;entryY=0.988;entryDx=0;entryDy=0;entryPerimeter=0;" edge="1" parent="1" source="O8xAqdgmH1oKLNabAZYg-36">
          <mxGeometry relative="1" as="geometry">
            <mxPoint x="620.14" y="842" as="targetPoint" />
          </mxGeometry>
        </mxCell>
        <mxCell id="O8xAqdgmH1oKLNabAZYg-36" value="" style="rounded=1;whiteSpace=wrap;html=1;" vertex="1" parent="1">
          <mxGeometry x="607.7299999999999" y="884" width="24.81" height="46" as="geometry" />
        </mxCell>
        <mxCell id="O8xAqdgmH1oKLNabAZYg-37" value="" style="edgeStyle=orthogonalEdgeStyle;rounded=0;orthogonalLoop=1;jettySize=auto;html=1;" edge="1" parent="1" source="O8xAqdgmH1oKLNabAZYg-38" target="O8xAqdgmH1oKLNabAZYg-34">
          <mxGeometry relative="1" as="geometry" />
        </mxCell>
        <mxCell id="O8xAqdgmH1oKLNabAZYg-38" value="" style="rounded=1;whiteSpace=wrap;html=1;fillColor=#d5e8d4;strokeColor=#82b366;" vertex="1" parent="1">
          <mxGeometry x="591.39" y="1083" width="57.5" height="91" as="geometry" />
        </mxCell>
        <mxCell id="O8xAqdgmH1oKLNabAZYg-39" value="Previous_span_pool" style="text;html=1;strokeColor=none;fillColor=none;align=center;verticalAlign=middle;whiteSpace=wrap;rounded=0;rotation=-90;" vertex="1" parent="1">
          <mxGeometry x="693.64" y="943" width="60" height="30" as="geometry" />
        </mxCell>
        <mxCell id="O8xAqdgmH1oKLNabAZYg-40" style="edgeStyle=orthogonalEdgeStyle;rounded=0;orthogonalLoop=1;jettySize=auto;html=1;entryX=0.24;entryY=0.971;entryDx=0;entryDy=0;entryPerimeter=0;jumpStyle=none;" edge="1" parent="1" source="O8xAqdgmH1oKLNabAZYg-41">
          <mxGeometry relative="1" as="geometry">
            <mxPoint x="697.14" y="841" as="targetPoint" />
          </mxGeometry>
        </mxCell>
        <mxCell id="O8xAqdgmH1oKLNabAZYg-41" value="" style="rounded=1;whiteSpace=wrap;html=1;fillColor=#d5e8d4;strokeColor=#82b366;" vertex="1" parent="1">
          <mxGeometry x="668.14" y="1083" width="57.5" height="91" as="geometry" />
        </mxCell>
        <mxCell id="O8xAqdgmH1oKLNabAZYg-45" value="" style="rounded=1;whiteSpace=wrap;html=1;dashed=1;fillColor=none;strokeColor=#d79b00;" vertex="1" parent="1">
          <mxGeometry x="568.77" y="605" width="167.37" height="121" as="geometry" />
        </mxCell>
        <mxCell id="O8xAqdgmH1oKLNabAZYg-48" value="" style="rounded=1;whiteSpace=wrap;html=1;fillColor=#d5e8d4;strokeColor=#82b366;" vertex="1" parent="1">
          <mxGeometry x="685" y="383.22" width="60" height="58" as="geometry" />
        </mxCell>
        <mxCell id="O8xAqdgmH1oKLNabAZYg-51" style="edgeStyle=orthogonalEdgeStyle;rounded=0;orthogonalLoop=1;jettySize=auto;html=1;entryX=0;entryY=0.5;entryDx=0;entryDy=0;jumpStyle=arc;" edge="1" parent="1" source="u9Ba9--OEbl625sA4hoY-120" target="O8xAqdgmH1oKLNabAZYg-34">
          <mxGeometry relative="1" as="geometry">
            <Array as="points">
              <mxPoint x="325" y="1049" />
              <mxPoint x="561" y="1049" />
              <mxPoint x="561" y="985" />
            </Array>
          </mxGeometry>
        </mxCell>
        <mxCell id="O8xAqdgmH1oKLNabAZYg-56" value="" style="endArrow=none;dashed=1;html=1;dashPattern=1 3;strokeWidth=2;rounded=0;entryX=0.63;entryY=0.026;entryDx=0;entryDy=0;entryPerimeter=0;" edge="1" parent="1">
          <mxGeometry width="50" height="50" relative="1" as="geometry">
            <mxPoint x="714.79" y="441.22" as="sourcePoint" />
            <mxPoint x="714.72" y="471.22" as="targetPoint" />
          </mxGeometry>
        </mxCell>
        <mxCell id="O8xAqdgmH1oKLNabAZYg-58" value="" style="endArrow=classic;html=1;rounded=0;exitX=0.099;exitY=0.011;exitDx=0;exitDy=0;exitPerimeter=0;entryX=0.5;entryY=1;entryDx=0;entryDy=0;" edge="1" parent="1" source="XD2-V8QEW1LzV1P3F_-f-14" target="XD2-V8QEW1LzV1P3F_-f-3">
          <mxGeometry width="50" height="50" relative="1" as="geometry">
            <mxPoint x="323" y="495" as="sourcePoint" />
            <mxPoint x="373" y="445" as="targetPoint" />
          </mxGeometry>
        </mxCell>
      </root>
    </mxGraphModel>
  </diagram>
</mxfile>
